<?xml version="1.0" encoding="utf-8"?>
<svg version="1.0" width="262.000000pt" height="82.000000pt" viewBox="0 -10.582 263.797 92.582" xmlns="http://www.w3.org/2000/svg">
  <g transform="translate(0.000000,82.000000) scale(0.100000,-0.100000)" fill="#000000" stroke="none">
    <path d="M1375 815 c-5 -2 -93 -29 -195 -61 -180 -56 -210 -68 -210 -84 0 -18 34 -18 102 0 40 11 132 34 203 51 73 17 138 39 148 49 17 16 17 18 2 34 -16 15 -28 18 -50 11z" style="fill: rgb(107, 139, 158);"/>
    <path d="M1343 723 c-21 -8 -15 -33 10 -43 12 -5 87 -26 166 -45 101 -25 147 -33 154 -26 19 19 -6 31 -139 70 -155 46 -175 50 -191 44z" style="fill: rgb(107, 139, 158);"/>
    <path d="M1115 521 c-4 -82 -4 -154 -1 -160 9 -15 43 -14 52 1 4 6 7 39 6 72 0 34 -1 100 -1 149 -1 85 -2 87 -25 87 -24 0 -24 -1 -31 -149z" style="fill: rgb(239, 119, 26);"/>
    <path d="M1279 592 c-27 -24 -33 -37 -36 -83 -7 -99 57 -154 150 -128 45 12 81 69 58 92 -10 10 -19 4 -43 -25 -18 -24 -39 -38 -52 -38 -62 0 -90 107 -41 155 32 33 51 31 85 -5 41 -44 72 -36 49 13 -25 54 -119 65 -170 19z" style="fill: rgb(107, 139, 158);"/>
    <path d="M8 279 c-6 -4 -8 -14 -5 -23 5 -11 19 -16 52 -16 l47 0 -3 -110 c-3 -113 4 -136 34 -124 15 5 17 23 17 120 l0 114 46 0 c41 0 45 2 42 23 -3 21 -7 22 -111 22 -60 0 -114 -3 -119 -6z" style="fill: rgb(107, 139, 158);"/>
    <path d="M297 277 c-15 -11 -17 -28 -15 -137 l3 -125 108 -3 c102 -3 107 -2 107 18 0 18 -6 20 -80 20 l-80 0 0 40 0 39 73 3 c56 2 72 6 72 18 0 12 -16 16 -72 18 l-73 3 0 39 0 38 75 -5 c65 -5 75 -4 81 12 4 10 1 21 -7 26 -22 14 -173 11 -192 -4z" style="fill: rgb(107, 139, 158);"/>
    <path d="M564 279 c-11 -18 -8 -259 4 -271 5 -5 16 -6 25 -2 13 5 17 19 17 65 0 47 3 59 16 59 29 0 52 -19 83 -70 34 -54 55 -70 74 -51 9 9 6 23 -13 57 -13 26 -30 48 -37 51 -17 7 -17 23 0 23 23 0 50 39 50 71 0 53 -30 72 -126 77 -63 3 -86 1 -93 -9z m133 -35 c29 -8 40 -42 20 -61 -8 -8 -36 -18 -61 -20 l-46 -6 0 47 c0 45 0 46 33 46 17 0 42 -3 54 -6z" style="fill: rgb(107, 139, 158);"/>
    <path d="M855 279 c-12 -18 -8 -260 4 -272 24 -24 34 10 32 110 -2 117 8 114 39 -14 21 -89 34 -108 64 -97 12 5 56 139 56 171 0 6 6 24 13 41 10 25 12 14 8 -85 -3 -120 4 -148 34 -123 12 10 15 37 15 136 0 115 -1 124 -21 134 -45 24 -65 6 -88 -78 -11 -43 -21 -85 -21 -92 0 -30 -18 8 -35 75 -10 39 -22 78 -27 88 -10 19 -63 24 -73 6z" style="fill: rgb(107, 139, 158);"/>
    <path d="M1232 270 c-77 -47 -83 -190 -10 -241 39 -29 130 -31 170 -5 56 37 73 151 32 214 -33 51 -134 67 -192 32z m129 -49 c60 -60 26 -174 -51 -174 -45 0 -80 40 -80 93 0 98 70 141 131 81z" style="fill: rgb(107, 139, 158);"/>
    <path d="M1562 273 c-43 -21 -65 -65 -65 -130 0 -79 36 -126 103 -137 74 -12 139 24 143 80 3 41 -27 44 -48 4 -44 -84 -145 -44 -145 58 0 35 6 49 29 73 39 38 66 37 105 -6 36 -39 51 -43 60 -18 8 20 -21 63 -55 80 -33 17 -88 16 -127 -4z" style="fill: rgb(239, 119, 26);"/>
    <path d="M1885 281 c-3 -6 -28 -65 -55 -133 -42 -104 -47 -125 -36 -137 18 -18 35 -7 52 35 14 33 16 34 69 34 53 0 55 -1 72 -37 20 -40 31 -47 52 -34 12 8 10 21 -14 83 -65 166 -82 198 -109 198 -14 0 -27 -4 -31 -9z m48 -93 c8 -24 18 -51 22 -60 6 -16 1 -18 -40 -18 -41 0 -46 2 -40 18 4 9 14 36 22 60 8 23 16 42 18 42 2 0 10 -19 18 -42z" style="fill: rgb(239, 119, 26); transform-box: fill-box; transform-origin: 50% 50%;" transform="matrix(1, 0, 0, 1, 0, -0.000003814697)"/>
    <path d="M2133 279 c-12 -6 -27 -25 -34 -42 -20 -48 3 -78 81 -103 78 -25 95 -47 61 -75 -34 -28 -59 -24 -97 18 -36 39 -59 36 -52 -7 5 -37 51 -64 108 -64 69 0 104 27 108 82 4 48 -14 64 -95 88 -61 18 -81 37 -63 59 21 25 76 19 98 -12 13 -17 25 -24 36 -20 22 9 20 40 -4 62 -24 22 -114 30 -147 14z" style="fill: rgb(239, 119, 26);"/>
    <path d="M2446 268 c-28 -43 -99 -236 -93 -252 11 -29 37 -17 53 24 16 40 17 40 70 40 52 0 54 -1 74 -40 21 -41 46 -52 57 -24 5 15 -65 204 -94 252 -7 12 -22 22 -33 22 -11 0 -26 -10 -34 -22z m56 -96 c10 -26 18 -50 18 -54 0 -5 -18 -8 -40 -8 -23 0 -40 5 -40 11 0 19 34 108 39 103 3 -3 13 -26 23 -52z" style="fill: rgb(239, 119, 26);"/>
    <text style="fill: rgb(107, 139, 158); font-family: Forte; font-size: 8.4px; paint-order: fill; white-space: pre; transform-origin: 40.094px 56.322px;" transform="matrix(12.96571, 3.964021, 2.92372, -9.56305, 1118.955444, 751.862854)"><tspan x="24.459" y="59.032">Plat</tspan><tspan style="fill: rgb(239, 119, 26);">form</tspan></text>
  </g>
</svg>