<?xml version="1.0" encoding="utf-8"?>
<svg version="1.0" width="262.000000pt" height="262pt" viewBox="0 -8.717 76.2 76.2" xmlns="http://www.w3.org/2000/svg">
  <g transform="matrix(0.1, 0, 0, -0.1, -93.783005, 85.005867)" fill="#000000" stroke="none">
    <path d="M1375 815 c-5 -2 -93 -29 -195 -61 -180 -56 -210 -68 -210 -84 0 -18 34 -18 102 0 40 11 132 34 203 51 73 17 138 39 148 49 17 16 17 18 2 34 -16 15 -28 18 -50 11z" style="fill: rgb(107, 139, 158);"/>
    <path d="M1343 723 c-21 -8 -15 -33 10 -43 12 -5 87 -26 166 -45 101 -25 147 -33 154 -26 19 19 -6 31 -139 70 -155 46 -175 50 -191 44z" style="fill: rgb(107, 139, 158);"/>
    <path d="M1115 521 c-4 -82 -4 -154 -1 -160 9 -15 43 -14 52 1 4 6 7 39 6 72 0 34 -1 100 -1 149 -1 85 -2 87 -25 87 -24 0 -24 -1 -31 -149z" style="fill: rgb(239, 119, 26);"/>
    <path d="M1279 592 c-27 -24 -33 -37 -36 -83 -7 -99 57 -154 150 -128 45 12 81 69 58 92 -10 10 -19 4 -43 -25 -18 -24 -39 -38 -52 -38 -62 0 -90 107 -41 155 32 33 51 31 85 -5 41 -44 72 -36 49 13 -25 54 -119 65 -170 19z" style="fill: rgb(107, 139, 158);"/>
  </g>
</svg>